<?xml version="1.0" standalone="no"?>
<!DOCTYPE svg PUBLIC "-//W3C//DTD SVG 20010904//EN"
 "http://www.w3.org/TR/2001/REC-SVG-20010904/DTD/svg10.dtd">
<svg version="1.0" xmlns="http://www.w3.org/2000/svg"
 width="512.000000pt" height="512.000000pt" viewBox="0 0 512.000000 512.000000"
 preserveAspectRatio="xMidYMid meet">

<g transform="translate(0.000000,512.000000) scale(0.100000,-0.100000)"
fill="#FFFFFF" stroke="none">
<path d="M278 5091 l-33 -29 -3 -795 c-1 -508 1 -804 8 -821 5 -14 24 -35 42
-46 43 -27 84 -20 121 20 l27 30 0 735 0 735 1610 0 1610 0 0 -1315 0 -1315
-201 0 -201 0 -29 -29 -29 -29 0 -421 0 -421 -240 0 c-262 0 -285 -4 -308 -55
-14 -29 -15 -55 -5 -81 5 -14 299 -362 621 -736 14 -17 -35 -18 -1011 -18
l-1027 0 0 353 c0 333 -1 354 -20 384 -11 18 -21 34 -22 35 -2 1 -169 5 -373
8 l-370 5 -5 683 -5 684 -28 24 c-31 26 -71 31 -112 12 -56 -26 -55 -5 -55
-793 0 -510 3 -733 11 -748 16 -31 798 -815 831 -833 23 -12 200 -14 1201 -14
l1174 0 118 -139 c65 -77 129 -144 142 -150 34 -15 65 -14 92 5 31 22 1041
1201 1058 1236 20 38 8 82 -29 113 l-30 25 -234 0 -234 0 0 411 c0 282 -3 417
-11 432 -28 54 -38 57 -261 57 l-208 0 -2 1386 -3 1386 -33 29 -32 29 -1740 0
-1740 0 -32 -29z m3862 -3416 c0 -442 1 -448 48 -472 9 -4 96 -10 192 -13
l176 -5 -394 -460 c-216 -253 -398 -460 -403 -460 -6 0 -188 207 -404 460
l-393 460 190 5 190 5 29 33 29 32 0 415 0 415 370 0 370 0 0 -415z m-3110
-810 c0 -118 -3 -215 -8 -215 -4 0 -104 97 -222 215 l-215 215 223 0 222 0 0
-215z"/>
<path d="M1105 4301 c-11 -5 -29 -19 -40 -31 -19 -21 -20 -38 -23 -403 -2
-275 1 -389 9 -409 27 -65 109 -79 160 -29 29 29 29 30 29 154 l0 125 98 4
c110 5 156 23 218 85 56 57 84 125 84 204 0 126 -58 222 -168 276 -53 26 -66
28 -202 30 -80 2 -154 -1 -165 -6z m273 -202 c66 -23 84 -109 33 -160 -27 -27
-35 -29 -100 -29 l-71 0 0 100 0 100 54 0 c29 0 67 -5 84 -11z"/>
<path d="M1839 4262 l-34 -30 -3 -356 c-3 -397 0 -425 51 -456 27 -17 50 -20
152 -20 136 0 213 15 278 53 184 108 252 411 142 634 -39 79 -96 136 -173 174
-42 21 -64 24 -213 27 l-167 4 -33 -30z m340 -193 c78 -44 116 -157 94 -285
-21 -122 -90 -184 -205 -184 l-55 0 -6 107 c-4 58 -7 168 -7 245 l0 138 71 0
c53 0 80 -5 108 -21z"/>
<path d="M2697 4279 c-45 -26 -47 -47 -47 -439 0 -254 4 -378 11 -393 32 -63
111 -77 160 -28 l29 29 0 151 0 151 104 0 c97 0 105 1 129 25 31 32 39 71 21
113 -19 46 -63 62 -169 62 l-85 0 0 69 0 69 109 4 c92 2 114 6 137 24 52 38
56 103 9 150 -24 24 -27 24 -207 24 -106 0 -190 -5 -201 -11z"/>
<path d="M275 3126 c-32 -32 -40 -69 -25 -107 17 -40 47 -59 93 -59 53 0 97
43 97 95 0 82 -108 128 -165 71z"/>
<path d="M1075 2936 c-55 -55 -35 -139 39 -164 31 -10 242 -12 997 -10 949 3
958 3 985 24 52 38 56 103 9 150 l-24 24 -991 0 -991 0 -24 -24z"/>
<path d="M1548 2374 c-35 -19 -48 -43 -48 -92 0 -33 6 -45 31 -66 l31 -26 529
0 529 0 31 28 c51 45 40 125 -21 157 -43 22 -1041 22 -1082 -1z"/>
</g>
</svg>
