<svg xmlns="http://www.w3.org/2000/svg" version="1.0" width="241.000000pt" height="253.000000pt" viewBox="0 0 241.000000 253.000000" preserveAspectRatio="xMidYMid meet">

<g transform="translate(0.000000,253.000000) scale(0.100000,-0.100000)" fill="#f7f2f2" stroke="none">
<path d="M1480 2335 c84 -85 102 -107 90 -115 -8 -5 -129 -78 -269 -162 -139 -84 -256 -158 -258 -165 -2 -6 9 -53 25 -105 34 -106 18 -95 185 -118 49 -7 85 -16 80 -20 -4 -5 -163 -77 -352 -160 -306 -136 -348 -152 -384 -147 -54 7 -91 36 -95 74 -3 25 12 46 102 147 74 83 107 127 112 151 20 107 -65 174 -207 162 -62 -5 -139 -33 -153 -56 -3 -5 9 -22 26 -37 71 -59 147 -70 196 -29 37 31 50 31 58 1 9 -37 -8 -59 -102 -132 -170 -133 -192 -267 -58 -364 l43 -31 -24 -34 c-21 -32 -30 -69 -51 -216 -8 -54 -40 -99 -84 -117 l-40 -17 0 -182 0 -183 130 0 c130 0 130 0 125 23 -13 57 -45 221 -45 233 0 11 245 144 265 144 3 0 5 -15 5 -32 0 -31 -25 -93 -51 -129 -11 -14 1 -33 76 -123 l88 -106 121 0 121 1 -104 98 c-75 71 -102 102 -96 112 5 8 24 33 43 57 l34 42 100 0 c116 0 117 -5 17 -67 -33 -20 -59 -39 -59 -43 0 -12 156 -150 169 -150 7 0 68 56 137 124 109 108 129 124 164 129 l40 5 0 -159 0 -159 103 0 103 0 48 123 c77 195 152 413 181 532 24 95 27 117 17 160 -15 74 -73 223 -171 445 -47 107 -88 198 -89 202 -2 5 25 6 60 2 l64 -6 36 40 c21 23 46 59 58 82 l20 40 -135 0 c-74 0 -135 3 -135 6 0 3 20 29 45 58 l45 53 -29 40 c-57 78 -196 149 -341 172 -113 19 -113 20 0 -94z" fill="#f7f2f2"/>
<path d="M1106 2288 c21 -36 128 -168 136 -168 18 0 138 82 132 91 -3 5 -28 21 -55 34 -86 44 -231 73 -213 43z" fill="#f7f2f2"/>
<path d="M1685 316 c-46 -20 -67 -51 -73 -104 -8 -87 41 -142 126 -142 44 0 101 35 84 52 -7 7 -18 5 -33 -6 -97 -67 -200 73 -114 154 30 28 85 32 112 8 12 -11 24 -14 32 -9 19 12 5 30 -35 47 -41 17 -60 17 -99 0z" fill="#f7f2f2"/>
<path d="M40 195 l0 -125 25 0 25 0 0 125 0 125 -25 0 -25 0 0 -125z" fill="#f7f2f2"/>
<path d="M1880 195 c0 -104 2 -125 15 -125 13 0 15 21 15 125 0 104 -2 125 -15 125 -13 0 -15 -21 -15 -125z" fill="#f7f2f2"/>
<path d="M2180 195 c0 -104 2 -125 15 -125 8 0 15 5 15 12 0 9 3 9 12 0 7 -7 28 -12 48 -12 52 0 75 28 75 92 0 43 -4 53 -29 75 -28 24 -47 26 -88 8 -16 -6 -18 -1 -18 34 0 30 -4 41 -15 41 -13 0 -15 -21 -15 -125z m106 27 c61 -41 18 -148 -50 -123 -23 9 -26 16 -26 60 0 37 5 53 18 60 20 12 43 14 58 3z" fill="#f7f2f2"/>
<path d="M960 280 c0 -11 -7 -23 -15 -26 -8 -4 -15 -15 -15 -25 0 -10 7 -19 15 -19 11 0 15 -13 15 -54 0 -75 6 -86 46 -86 27 0 34 4 34 19 0 10 -9 21 -20 24 -16 4 -20 14 -20 50 0 36 4 46 20 50 11 3 20 12 20 20 0 8 -9 17 -20 20 -12 3 -20 14 -20 26 0 14 -6 21 -20 21 -13 0 -20 -7 -20 -20z" fill="#f7f2f2"/>
<path d="M221 251 c-8 -5 -29 -7 -48 -4 l-33 6 0 -92 c0 -90 0 -91 25 -91 24 0 25 2 25 64 0 69 14 92 50 81 18 -6 20 -15 20 -76 0 -67 1 -69 25 -69 25 0 25 1 25 79 0 71 -2 82 -22 95 -25 18 -46 20 -67 7z" fill="#f7f2f2"/>
<path d="M588 245 c-31 -17 -52 -71 -42 -109 9 -39 50 -66 98 -66 49 0 69 11 61 33 -5 12 -12 14 -36 5 -23 -8 -35 -7 -54 6 -41 27 -29 36 45 36 39 0 70 4 70 9 0 29 -26 74 -51 86 -35 18 -56 18 -91 0z m80 -37 c21 -21 13 -28 -33 -28 -25 0 -45 4 -45 8 0 15 24 32 45 32 12 0 26 -5 33 -12z" fill="#f7f2f2"/>
<path d="M792 250 c-27 -11 -36 -32 -28 -65 5 -19 17 -28 53 -38 26 -8 49 -19 51 -25 6 -19 -28 -26 -61 -14 -23 9 -34 9 -45 0 -22 -19 13 -38 68 -38 51 0 80 21 80 57 0 26 -16 39 -66 55 -48 16 -43 33 10 33 47 0 59 21 21 35 -31 12 -52 12 -83 0z" fill="#f7f2f2"/>
<path d="M1101 234 c-26 -22 -31 -33 -31 -70 0 -61 32 -94 90 -94 58 0 90 33 90 94 0 37 -5 48 -31 70 -17 15 -43 26 -59 26 -16 0 -42 -11 -59 -26z m91 -31 c36 -32 15 -93 -32 -93 -48 0 -66 54 -30 90 24 24 38 25 62 3z" fill="#f7f2f2"/>
<path d="M1370 251 c-8 -6 -27 -7 -42 -4 l-28 6 0 -92 c0 -84 2 -91 20 -91 17 0 19 8 22 67 3 62 5 68 28 73 16 4 26 14 28 28 4 24 -4 27 -28 13z" fill="#f7f2f2"/>
<path d="M1453 250 c-12 -5 -24 -18 -28 -29 -12 -38 4 -59 52 -73 26 -7 48 -19 51 -26 6 -19 -28 -27 -62 -14 -21 8 -33 9 -41 1 -16 -17 23 -39 70 -39 46 0 75 22 75 57 0 26 -16 39 -66 55 -48 16 -43 33 10 33 47 0 59 21 21 35 -31 12 -52 12 -82 0z" fill="#f7f2f2"/>
<path d="M345 229 c4 -11 19 -50 34 -87 22 -55 32 -68 52 -70 23 -3 28 5 61 88 l37 91 -26 -3 c-21 -2 -29 -13 -48 -63 l-22 -60 -17 39 c-9 22 -19 50 -22 63 -4 16 -13 23 -31 23 -20 0 -23 -4 -18 -21z" fill="#f7f2f2"/>
<path d="M1960 179 c0 -91 10 -109 58 -109 21 0 44 6 51 12 11 11 14 11 18 1 3 -7 11 -13 19 -13 11 0 14 19 14 90 0 72 -3 90 -15 90 -11 0 -15 -16 -17 -67 -3 -63 -5 -69 -30 -81 -21 -10 -33 -10 -48 -2 -17 9 -20 21 -20 80 0 56 -3 70 -15 70 -12 0 -15 -15 -15 -71z" fill="#f7f2f2"/>
</g>
</svg>